<mxfile host="app.diagrams.net" agent="Mozilla/5.0 (Windows NT 10.0; Win64; x64) AppleWebKit/537.36 (KHTML, like Gecko) Chrome/141.0.0.0 Safari/537.36 Edg/141.0.0.0" version="28.2.6">
  <diagram name="Page-1" id="Qh66qdQzl6UCUVbuFPbh">
    <mxGraphModel grid="1" page="1" gridSize="10" guides="1" tooltips="1" connect="1" arrows="1" fold="1" pageScale="1" pageWidth="1654" pageHeight="1169" background="light-dark(#FFFFFF,#000000)" math="0" shadow="0">
      <root>
        <mxCell id="0" />
        <mxCell id="1" parent="0" />
        <mxCell id="bX-nkgjppk_giDj6LDvc-8" value="&lt;font&gt;USER&lt;/font&gt;" style="rounded=0;whiteSpace=wrap;html=1;fontSize=20;labelBackgroundColor=default;" vertex="1" parent="1">
          <mxGeometry x="1130" y="430" width="160" height="60" as="geometry" />
        </mxCell>
        <mxCell id="bX-nkgjppk_giDj6LDvc-9" value="" style="endArrow=none;html=1;rounded=0;fontSize=20;" edge="1" parent="1">
          <mxGeometry width="50" height="50" relative="1" as="geometry">
            <mxPoint x="1210" y="430" as="sourcePoint" />
            <mxPoint x="1210" y="360" as="targetPoint" />
          </mxGeometry>
        </mxCell>
        <mxCell id="bX-nkgjppk_giDj6LDvc-12" value="Password" style="ellipse;whiteSpace=wrap;html=1;fontSize=20;" vertex="1" parent="1">
          <mxGeometry x="1130" y="290" width="150" height="70" as="geometry" />
        </mxCell>
        <mxCell id="bX-nkgjppk_giDj6LDvc-14" value="&lt;u&gt;User_Id&lt;/u&gt;" style="ellipse;whiteSpace=wrap;html=1;fontSize=20;" vertex="1" parent="1">
          <mxGeometry x="930" y="390" width="140" height="55" as="geometry" />
        </mxCell>
        <mxCell id="bX-nkgjppk_giDj6LDvc-15" value="" style="endArrow=none;html=1;rounded=0;exitX=1;exitY=0.5;exitDx=0;exitDy=0;fontSize=20;" edge="1" parent="1" source="bX-nkgjppk_giDj6LDvc-14">
          <mxGeometry width="50" height="50" relative="1" as="geometry">
            <mxPoint x="1080" y="510" as="sourcePoint" />
            <mxPoint x="1130" y="460" as="targetPoint" />
          </mxGeometry>
        </mxCell>
        <mxCell id="bX-nkgjppk_giDj6LDvc-18" value="Department" style="ellipse;whiteSpace=wrap;html=1;fontSize=20;" vertex="1" parent="1">
          <mxGeometry x="1335" y="305" width="140" height="55" as="geometry" />
        </mxCell>
        <mxCell id="bX-nkgjppk_giDj6LDvc-19" value="" style="endArrow=none;html=1;rounded=0;exitX=1;exitY=0.5;exitDx=0;exitDy=0;fontSize=20;" edge="1" parent="1" target="bX-nkgjppk_giDj6LDvc-18">
          <mxGeometry width="50" height="50" relative="1" as="geometry">
            <mxPoint x="1290" y="456.5" as="sourcePoint" />
            <mxPoint x="1360" y="450" as="targetPoint" />
            <Array as="points" />
          </mxGeometry>
        </mxCell>
        <mxCell id="bX-nkgjppk_giDj6LDvc-20" value="Name" style="ellipse;whiteSpace=wrap;html=1;fontSize=20;" vertex="1" parent="1">
          <mxGeometry x="1420" y="375" width="140" height="55" as="geometry" />
        </mxCell>
        <mxCell id="bX-nkgjppk_giDj6LDvc-21" value="" style="endArrow=none;html=1;rounded=0;exitX=1;exitY=0.5;exitDx=0;exitDy=0;entryX=0.046;entryY=0.218;entryDx=0;entryDy=0;entryPerimeter=0;fontSize=20;" edge="1" parent="1">
          <mxGeometry width="50" height="50" relative="1" as="geometry">
            <mxPoint x="1290" y="490" as="sourcePoint" />
            <mxPoint x="1416.44" y="411.99" as="targetPoint" />
            <Array as="points" />
          </mxGeometry>
        </mxCell>
        <mxCell id="bX-nkgjppk_giDj6LDvc-22" value="Email" style="ellipse;whiteSpace=wrap;html=1;fontSize=20;" vertex="1" parent="1">
          <mxGeometry x="950" y="297.5" width="140" height="55" as="geometry" />
        </mxCell>
        <mxCell id="bX-nkgjppk_giDj6LDvc-23" value="" style="endArrow=none;html=1;rounded=0;exitX=0.129;exitY=-0.043;exitDx=0;exitDy=0;exitPerimeter=0;fontSize=20;" edge="1" parent="1" source="bX-nkgjppk_giDj6LDvc-8">
          <mxGeometry width="50" height="50" relative="1" as="geometry">
            <mxPoint x="1080" y="412.5" as="sourcePoint" />
            <mxPoint x="1080" y="342.5" as="targetPoint" />
          </mxGeometry>
        </mxCell>
        <mxCell id="bX-nkgjppk_giDj6LDvc-25" value="" style="endArrow=none;html=1;rounded=0;fontSize=20;" edge="1" parent="1">
          <mxGeometry width="50" height="50" relative="1" as="geometry">
            <mxPoint x="1200" y="570" as="sourcePoint" />
            <mxPoint x="1200" y="490" as="targetPoint" />
          </mxGeometry>
        </mxCell>
        <mxCell id="bX-nkgjppk_giDj6LDvc-26" value="" style="endArrow=none;html=1;rounded=0;fontSize=20;" edge="1" parent="1">
          <mxGeometry width="50" height="50" relative="1" as="geometry">
            <mxPoint x="1209.29" y="570" as="sourcePoint" />
            <mxPoint x="1209.29" y="490" as="targetPoint" />
          </mxGeometry>
        </mxCell>
        <mxCell id="bX-nkgjppk_giDj6LDvc-27" value="d" style="ellipse;whiteSpace=wrap;html=1;aspect=fixed;fontSize=20;" vertex="1" parent="1">
          <mxGeometry x="1180" y="570" width="50" height="50" as="geometry" />
        </mxCell>
        <mxCell id="bX-nkgjppk_giDj6LDvc-28" value="" style="endArrow=none;html=1;rounded=0;exitX=0.57;exitY=0.014;exitDx=0;exitDy=0;exitPerimeter=0;fontSize=20;" edge="1" parent="1" source="bX-nkgjppk_giDj6LDvc-31">
          <mxGeometry width="50" height="50" relative="1" as="geometry">
            <mxPoint x="1070" y="710" as="sourcePoint" />
            <mxPoint x="1180" y="610" as="targetPoint" />
          </mxGeometry>
        </mxCell>
        <mxCell id="bX-nkgjppk_giDj6LDvc-29" value="" style="endArrow=none;html=1;rounded=0;fontSize=20;" edge="1" parent="1">
          <mxGeometry width="50" height="50" relative="1" as="geometry">
            <mxPoint x="1204.29" y="720" as="sourcePoint" />
            <mxPoint x="1204.29" y="620" as="targetPoint" />
          </mxGeometry>
        </mxCell>
        <mxCell id="bX-nkgjppk_giDj6LDvc-30" value="" style="endArrow=none;html=1;rounded=0;entryX=1;entryY=1;entryDx=0;entryDy=0;exitX=0.25;exitY=0;exitDx=0;exitDy=0;fontSize=20;" edge="1" parent="1" source="bX-nkgjppk_giDj6LDvc-33" target="bX-nkgjppk_giDj6LDvc-27">
          <mxGeometry width="50" height="50" relative="1" as="geometry">
            <mxPoint x="1340" y="700" as="sourcePoint" />
            <mxPoint x="1240" y="620" as="targetPoint" />
          </mxGeometry>
        </mxCell>
        <mxCell id="bX-nkgjppk_giDj6LDvc-31" value="&lt;font&gt;STUDENT&lt;/font&gt;" style="rounded=0;whiteSpace=wrap;html=1;fontSize=20;" vertex="1" parent="1">
          <mxGeometry x="960" y="710" width="150" height="60" as="geometry" />
        </mxCell>
        <mxCell id="bX-nkgjppk_giDj6LDvc-32" value="&lt;font&gt;TECH_OFFICER&lt;/font&gt;" style="rounded=0;whiteSpace=wrap;html=1;fontSize=20;" vertex="1" parent="1">
          <mxGeometry x="1130" y="710" width="175" height="60" as="geometry" />
        </mxCell>
        <mxCell id="bX-nkgjppk_giDj6LDvc-33" value="&lt;font&gt;LECTURE&lt;/font&gt;" style="rounded=0;whiteSpace=wrap;html=1;fontSize=20;" vertex="1" parent="1">
          <mxGeometry x="1320" y="710" width="150" height="60" as="geometry" />
        </mxCell>
        <mxCell id="UqmcxjYlmGOQxnhvRvWn-1" value="" style="endArrow=none;html=1;rounded=0;entryX=0.458;entryY=1.011;entryDx=0;entryDy=0;entryPerimeter=0;fontSize=20;" edge="1" parent="1" target="bX-nkgjppk_giDj6LDvc-31">
          <mxGeometry width="50" height="50" relative="1" as="geometry">
            <mxPoint x="1034.29" y="980" as="sourcePoint" />
            <mxPoint x="1034.29" y="770" as="targetPoint" />
          </mxGeometry>
        </mxCell>
        <mxCell id="UqmcxjYlmGOQxnhvRvWn-2" value="STUDYING" style="rhombus;whiteSpace=wrap;html=1;fontSize=20;" vertex="1" parent="1">
          <mxGeometry x="955" y="980" width="160" height="150" as="geometry" />
        </mxCell>
        <mxCell id="UqmcxjYlmGOQxnhvRvWn-3" value="" style="endArrow=none;html=1;rounded=0;entryX=0.5;entryY=1;entryDx=0;entryDy=0;exitX=0.5;exitY=0;exitDx=0;exitDy=0;fontSize=20;" edge="1" parent="1" source="UqmcxjYlmGOQxnhvRvWn-4" target="UqmcxjYlmGOQxnhvRvWn-2">
          <mxGeometry width="50" height="50" relative="1" as="geometry">
            <mxPoint x="1030" y="1310" as="sourcePoint" />
            <mxPoint x="1060" y="1150" as="targetPoint" />
          </mxGeometry>
        </mxCell>
        <mxCell id="UqmcxjYlmGOQxnhvRvWn-4" value="&lt;font&gt;COURSE&lt;/font&gt;" style="rounded=0;whiteSpace=wrap;html=1;fontSize=20;" vertex="1" parent="1">
          <mxGeometry x="960" y="1310" width="160" height="60" as="geometry" />
        </mxCell>
        <mxCell id="UqmcxjYlmGOQxnhvRvWn-5" value="HAS" style="rhombus;whiteSpace=wrap;html=1;fontSize=20;" vertex="1" parent="1">
          <mxGeometry x="510" y="680" width="160" height="150" as="geometry" />
        </mxCell>
        <mxCell id="UqmcxjYlmGOQxnhvRvWn-7" value="" style="endArrow=none;html=1;rounded=0;exitX=0.25;exitY=0;exitDx=0;exitDy=0;fontSize=20;" edge="1" parent="1" source="bX-nkgjppk_giDj6LDvc-31">
          <mxGeometry width="50" height="50" relative="1" as="geometry">
            <mxPoint x="1000" y="700" as="sourcePoint" />
            <mxPoint x="990" y="640" as="targetPoint" />
          </mxGeometry>
        </mxCell>
        <mxCell id="UqmcxjYlmGOQxnhvRvWn-9" value="Status" style="ellipse;whiteSpace=wrap;html=1;fontSize=20;" vertex="1" parent="1">
          <mxGeometry x="920" y="580" width="140" height="55" as="geometry" />
        </mxCell>
        <mxCell id="UqmcxjYlmGOQxnhvRvWn-10" value="" style="endArrow=none;html=1;rounded=0;fontSize=20;" edge="1" parent="1">
          <mxGeometry width="50" height="50" relative="1" as="geometry">
            <mxPoint x="1190" y="840" as="sourcePoint" />
            <mxPoint x="1190" y="770" as="targetPoint" />
          </mxGeometry>
        </mxCell>
        <mxCell id="UqmcxjYlmGOQxnhvRvWn-11" value="" style="ellipse;whiteSpace=wrap;html=1;fontSize=20;" vertex="1" parent="1">
          <mxGeometry x="1115" y="840" width="165" height="70" as="geometry" />
        </mxCell>
        <mxCell id="UqmcxjYlmGOQxnhvRvWn-14" value="" style="endArrow=none;html=1;rounded=0;fontSize=20;" edge="1" parent="1">
          <mxGeometry width="50" height="50" relative="1" as="geometry">
            <mxPoint x="1400" y="870" as="sourcePoint" />
            <mxPoint x="1400" y="770" as="targetPoint" />
          </mxGeometry>
        </mxCell>
        <mxCell id="UqmcxjYlmGOQxnhvRvWn-15" value="" style="endArrow=none;html=1;rounded=0;fontSize=20;" edge="1" parent="1">
          <mxGeometry width="50" height="50" relative="1" as="geometry">
            <mxPoint x="1410" y="870" as="sourcePoint" />
            <mxPoint x="1410" y="770" as="targetPoint" />
          </mxGeometry>
        </mxCell>
        <mxCell id="UqmcxjYlmGOQxnhvRvWn-16" value="o" style="ellipse;whiteSpace=wrap;html=1;aspect=fixed;fontSize=20;" vertex="1" parent="1">
          <mxGeometry x="1380" y="870" width="50" height="50" as="geometry" />
        </mxCell>
        <mxCell id="UqmcxjYlmGOQxnhvRvWn-17" value="" style="endArrow=none;html=1;rounded=0;fontSize=20;" edge="1" parent="1" target="UqmcxjYlmGOQxnhvRvWn-16">
          <mxGeometry width="50" height="50" relative="1" as="geometry">
            <mxPoint x="1404.29" y="990" as="sourcePoint" />
            <mxPoint x="1404.29" y="930" as="targetPoint" />
          </mxGeometry>
        </mxCell>
        <mxCell id="UqmcxjYlmGOQxnhvRvWn-18" value="&lt;font&gt;DEAN&lt;/font&gt;" style="rounded=0;whiteSpace=wrap;html=1;fontSize=20;" vertex="1" parent="1">
          <mxGeometry x="1335" y="990" width="150" height="60" as="geometry" />
        </mxCell>
        <mxCell id="UqmcxjYlmGOQxnhvRvWn-19" value="Phone_No" style="ellipse;whiteSpace=wrap;html=1;fontSize=20;" vertex="1" parent="1">
          <mxGeometry x="1120" y="850" width="150" height="50" as="geometry" />
        </mxCell>
        <mxCell id="UqmcxjYlmGOQxnhvRvWn-20" value="" style="endArrow=none;html=1;rounded=0;entryX=0.25;entryY=1;entryDx=0;entryDy=0;fontSize=20;" edge="1" parent="1" target="UqmcxjYlmGOQxnhvRvWn-18">
          <mxGeometry width="50" height="50" relative="1" as="geometry">
            <mxPoint x="1373" y="1130" as="sourcePoint" />
            <mxPoint x="1380.71" y="1060" as="targetPoint" />
          </mxGeometry>
        </mxCell>
        <mxCell id="UqmcxjYlmGOQxnhvRvWn-22" value="&lt;u&gt;Lecture_Id&lt;/u&gt;" style="ellipse;whiteSpace=wrap;html=1;fontSize=20;" vertex="1" parent="1">
          <mxGeometry x="1310" y="1130" width="140" height="55" as="geometry" />
        </mxCell>
        <mxCell id="UqmcxjYlmGOQxnhvRvWn-23" value="" style="endArrow=none;html=1;rounded=0;exitX=0.5;exitY=0;exitDx=0;exitDy=0;fontSize=20;" edge="1" parent="1">
          <mxGeometry width="50" height="50" relative="1" as="geometry">
            <mxPoint x="670" y="750" as="sourcePoint" />
            <mxPoint x="950" y="750" as="targetPoint" />
            <Array as="points" />
          </mxGeometry>
        </mxCell>
        <mxCell id="UqmcxjYlmGOQxnhvRvWn-24" value="OBTAIN" style="rhombus;whiteSpace=wrap;html=1;fontSize=20;" vertex="1" parent="1">
          <mxGeometry x="570" y="1000" width="160" height="150" as="geometry" />
        </mxCell>
        <mxCell id="UqmcxjYlmGOQxnhvRvWn-25" value="" style="endArrow=none;html=1;rounded=0;entryX=0;entryY=0.75;entryDx=0;entryDy=0;exitX=1;exitY=0.5;exitDx=0;exitDy=0;fontSize=20;" edge="1" parent="1" source="UqmcxjYlmGOQxnhvRvWn-24" target="bX-nkgjppk_giDj6LDvc-31">
          <mxGeometry width="50" height="50" relative="1" as="geometry">
            <mxPoint x="720" y="960" as="sourcePoint" />
            <mxPoint x="955" y="907.5" as="targetPoint" />
            <Array as="points" />
          </mxGeometry>
        </mxCell>
        <mxCell id="UqmcxjYlmGOQxnhvRvWn-26" value="" style="endArrow=none;html=1;rounded=0;fontSize=20;" edge="1" parent="1">
          <mxGeometry width="50" height="50" relative="1" as="geometry">
            <mxPoint x="320" y="1260" as="sourcePoint" />
            <mxPoint x="320" y="1150" as="targetPoint" />
          </mxGeometry>
        </mxCell>
        <mxCell id="UqmcxjYlmGOQxnhvRvWn-27" value="&lt;font&gt;MARKS&lt;/font&gt;" style="rounded=0;whiteSpace=wrap;html=1;fontSize=20;" vertex="1" parent="1">
          <mxGeometry x="250" y="1240" width="150" height="60" as="geometry" />
        </mxCell>
        <mxCell id="UqmcxjYlmGOQxnhvRvWn-28" value="" style="endArrow=none;html=1;rounded=0;fontSize=20;" edge="1" parent="1">
          <mxGeometry width="50" height="50" relative="1" as="geometry">
            <mxPoint x="380" y="750" as="sourcePoint" />
            <mxPoint x="510" y="750" as="targetPoint" />
          </mxGeometry>
        </mxCell>
        <mxCell id="UqmcxjYlmGOQxnhvRvWn-29" value="&lt;font&gt;RESULT&lt;/font&gt;" style="rounded=0;whiteSpace=wrap;html=1;fontSize=20;" vertex="1" parent="1">
          <mxGeometry x="230" y="720" width="150" height="60" as="geometry" />
        </mxCell>
        <mxCell id="UqmcxjYlmGOQxnhvRvWn-30" value="" style="endArrow=none;html=1;rounded=0;fontSize=20;" edge="1" parent="1">
          <mxGeometry width="50" height="50" relative="1" as="geometry">
            <mxPoint x="150" y="1370" as="sourcePoint" />
            <mxPoint x="280" y="1300" as="targetPoint" />
          </mxGeometry>
        </mxCell>
        <mxCell id="UqmcxjYlmGOQxnhvRvWn-31" value="Quiz2_Marks" style="ellipse;whiteSpace=wrap;html=1;fontSize=20;" vertex="1" parent="1">
          <mxGeometry x="70" y="1345" width="140" height="55" as="geometry" />
        </mxCell>
        <mxCell id="UqmcxjYlmGOQxnhvRvWn-32" value="Quiz3_Marks" style="ellipse;whiteSpace=wrap;html=1;fontSize=20;" vertex="1" parent="1">
          <mxGeometry y="1280" width="140" height="55" as="geometry" />
        </mxCell>
        <mxCell id="UqmcxjYlmGOQxnhvRvWn-33" value="Final_Theory" style="ellipse;whiteSpace=wrap;html=1;fontSize=20;" vertex="1" parent="1">
          <mxGeometry x="10" y="1210" width="140" height="55" as="geometry" />
        </mxCell>
        <mxCell id="UqmcxjYlmGOQxnhvRvWn-34" value="&lt;u&gt;Marks_Id&lt;/u&gt;" style="ellipse;whiteSpace=wrap;html=1;fontSize=20;" vertex="1" parent="1">
          <mxGeometry x="400" y="1335" width="140" height="55" as="geometry" />
        </mxCell>
        <mxCell id="UqmcxjYlmGOQxnhvRvWn-35" value="Quiz1_Marks" style="ellipse;whiteSpace=wrap;html=1;fontSize=20;" vertex="1" parent="1">
          <mxGeometry x="240" y="1370" width="140" height="55" as="geometry" />
        </mxCell>
        <mxCell id="UqmcxjYlmGOQxnhvRvWn-36" value="Final_Practical" style="ellipse;whiteSpace=wrap;html=1;fontSize=20;" vertex="1" parent="1">
          <mxGeometry x="255" y="1110" width="140" height="55" as="geometry" />
        </mxCell>
        <mxCell id="UqmcxjYlmGOQxnhvRvWn-37" value="" style="endArrow=none;html=1;rounded=0;entryX=0.5;entryY=1;entryDx=0;entryDy=0;fontSize=20;" edge="1" parent="1" target="UqmcxjYlmGOQxnhvRvWn-27">
          <mxGeometry width="50" height="50" relative="1" as="geometry">
            <mxPoint x="310" y="1380" as="sourcePoint" />
            <mxPoint x="440" y="1310" as="targetPoint" />
          </mxGeometry>
        </mxCell>
        <mxCell id="UqmcxjYlmGOQxnhvRvWn-38" value="" style="endArrow=none;html=1;rounded=0;exitX=0.24;exitY=0.13;exitDx=0;exitDy=0;exitPerimeter=0;fontSize=20;" edge="1" parent="1" source="UqmcxjYlmGOQxnhvRvWn-34">
          <mxGeometry width="50" height="50" relative="1" as="geometry">
            <mxPoint x="420" y="1350" as="sourcePoint" />
            <mxPoint x="390" y="1302.5" as="targetPoint" />
          </mxGeometry>
        </mxCell>
        <mxCell id="UqmcxjYlmGOQxnhvRvWn-39" value="" style="endArrow=none;html=1;rounded=0;exitX=0.997;exitY=0.312;exitDx=0;exitDy=0;exitPerimeter=0;fontSize=20;" edge="1" parent="1" source="UqmcxjYlmGOQxnhvRvWn-32">
          <mxGeometry width="50" height="50" relative="1" as="geometry">
            <mxPoint x="120" y="1350" as="sourcePoint" />
            <mxPoint x="250" y="1280" as="targetPoint" />
          </mxGeometry>
        </mxCell>
        <mxCell id="UqmcxjYlmGOQxnhvRvWn-40" value="" style="endArrow=none;html=1;rounded=0;exitX=1;exitY=0.5;exitDx=0;exitDy=0;entryX=0;entryY=0.25;entryDx=0;entryDy=0;fontSize=20;" edge="1" parent="1" source="UqmcxjYlmGOQxnhvRvWn-33" target="UqmcxjYlmGOQxnhvRvWn-27">
          <mxGeometry width="50" height="50" relative="1" as="geometry">
            <mxPoint x="110" y="1240" as="sourcePoint" />
            <mxPoint x="240" y="1170" as="targetPoint" />
          </mxGeometry>
        </mxCell>
        <mxCell id="UqmcxjYlmGOQxnhvRvWn-43" value="" style="endArrow=none;html=1;rounded=0;entryX=0;entryY=0.5;entryDx=0;entryDy=0;fontSize=20;" edge="1" parent="1" target="UqmcxjYlmGOQxnhvRvWn-24">
          <mxGeometry width="50" height="50" relative="1" as="geometry">
            <mxPoint x="400" y="1275" as="sourcePoint" />
            <mxPoint x="700" y="1120" as="targetPoint" />
          </mxGeometry>
        </mxCell>
        <mxCell id="UqmcxjYlmGOQxnhvRvWn-44" value="Cgpa" style="ellipse;whiteSpace=wrap;html=1;fontSize=20;" vertex="1" parent="1">
          <mxGeometry x="350" y="820" width="140" height="55" as="geometry" />
        </mxCell>
        <mxCell id="UqmcxjYlmGOQxnhvRvWn-45" value="&lt;u&gt;Result_Id&lt;/u&gt;" style="ellipse;whiteSpace=wrap;html=1;fontSize=20;" vertex="1" parent="1">
          <mxGeometry x="40" y="740" width="140" height="55" as="geometry" />
        </mxCell>
        <mxCell id="UqmcxjYlmGOQxnhvRvWn-47" value="Sgpa" style="ellipse;whiteSpace=wrap;html=1;fontSize=20;" vertex="1" parent="1">
          <mxGeometry x="190" y="830" width="140" height="55" as="geometry" />
        </mxCell>
        <mxCell id="UqmcxjYlmGOQxnhvRvWn-49" value="" style="endArrow=none;html=1;rounded=0;exitX=0.5;exitY=0;exitDx=0;exitDy=0;fontSize=20;" edge="1" parent="1" source="UqmcxjYlmGOQxnhvRvWn-47">
          <mxGeometry width="50" height="50" relative="1" as="geometry">
            <mxPoint x="280" y="890" as="sourcePoint" />
            <mxPoint x="280" y="780" as="targetPoint" />
          </mxGeometry>
        </mxCell>
        <mxCell id="UqmcxjYlmGOQxnhvRvWn-50" value="" style="endArrow=none;html=1;rounded=0;fontSize=20;" edge="1" parent="1" source="UqmcxjYlmGOQxnhvRvWn-44">
          <mxGeometry width="50" height="50" relative="1" as="geometry">
            <mxPoint x="360" y="890" as="sourcePoint" />
            <mxPoint x="360" y="780" as="targetPoint" />
          </mxGeometry>
        </mxCell>
        <mxCell id="UqmcxjYlmGOQxnhvRvWn-51" value="" style="endArrow=none;html=1;rounded=0;entryX=0.998;entryY=0.291;entryDx=0;entryDy=0;entryPerimeter=0;exitX=0;exitY=0.5;exitDx=0;exitDy=0;fontSize=20;" edge="1" parent="1" source="UqmcxjYlmGOQxnhvRvWn-29" target="UqmcxjYlmGOQxnhvRvWn-45">
          <mxGeometry width="50" height="50" relative="1" as="geometry">
            <mxPoint x="230" y="780" as="sourcePoint" />
            <mxPoint x="230.41" y="730" as="targetPoint" />
          </mxGeometry>
        </mxCell>
        <mxCell id="UqmcxjYlmGOQxnhvRvWn-53" value="HAS" style="rhombus;whiteSpace=wrap;html=1;fontSize=20;" vertex="1" parent="1">
          <mxGeometry x="600" y="1230" width="160" height="150" as="geometry" />
        </mxCell>
        <mxCell id="UqmcxjYlmGOQxnhvRvWn-54" value="HAS" style="rhombus;whiteSpace=wrap;html=1;fontSize=20;" vertex="1" parent="1">
          <mxGeometry x="1280" y="1265" width="160" height="150" as="geometry" />
        </mxCell>
        <mxCell id="UqmcxjYlmGOQxnhvRvWn-55" value="" style="endArrow=none;html=1;rounded=0;fontSize=20;" edge="1" parent="1" target="UqmcxjYlmGOQxnhvRvWn-53">
          <mxGeometry width="50" height="50" relative="1" as="geometry">
            <mxPoint x="400" y="1280" as="sourcePoint" />
            <mxPoint x="450" y="1230" as="targetPoint" />
          </mxGeometry>
        </mxCell>
        <mxCell id="UqmcxjYlmGOQxnhvRvWn-56" value="" style="endArrow=none;html=1;rounded=0;entryX=0;entryY=0.5;entryDx=0;entryDy=0;exitX=1;exitY=0.5;exitDx=0;exitDy=0;fontSize=20;" edge="1" parent="1" source="UqmcxjYlmGOQxnhvRvWn-53" target="UqmcxjYlmGOQxnhvRvWn-4">
          <mxGeometry width="50" height="50" relative="1" as="geometry">
            <mxPoint x="766" y="1283" as="sourcePoint" />
            <mxPoint x="987" y="1287" as="targetPoint" />
          </mxGeometry>
        </mxCell>
        <mxCell id="UqmcxjYlmGOQxnhvRvWn-57" value="" style="endArrow=none;html=1;rounded=0;entryX=0;entryY=0.5;entryDx=0;entryDy=0;exitX=1;exitY=0.5;exitDx=0;exitDy=0;fontSize=20;" edge="1" parent="1" source="UqmcxjYlmGOQxnhvRvWn-4" target="UqmcxjYlmGOQxnhvRvWn-54">
          <mxGeometry width="50" height="50" relative="1" as="geometry">
            <mxPoint x="1130" y="1338" as="sourcePoint" />
            <mxPoint x="1351" y="1342" as="targetPoint" />
          </mxGeometry>
        </mxCell>
        <mxCell id="UqmcxjYlmGOQxnhvRvWn-58" value="" style="endArrow=none;html=1;rounded=0;entryX=0.5;entryY=0;entryDx=0;entryDy=0;exitX=0.577;exitY=0.955;exitDx=0;exitDy=0;exitPerimeter=0;fontSize=20;" edge="1" parent="1" source="bX-nkgjppk_giDj6LDvc-31" target="UqmcxjYlmGOQxnhvRvWn-54">
          <mxGeometry width="50" height="50" relative="1" as="geometry">
            <mxPoint x="1060" y="780" as="sourcePoint" />
            <mxPoint x="1320" y="1139.5" as="targetPoint" />
            <Array as="points">
              <mxPoint x="1150" y="950" />
            </Array>
          </mxGeometry>
        </mxCell>
        <mxCell id="UqmcxjYlmGOQxnhvRvWn-59" value="Credit" style="ellipse;whiteSpace=wrap;html=1;fontSize=20;" vertex="1" parent="1">
          <mxGeometry x="870" y="1425" width="140" height="55" as="geometry" />
        </mxCell>
        <mxCell id="UqmcxjYlmGOQxnhvRvWn-60" value="Course_Name" style="ellipse;whiteSpace=wrap;html=1;fontSize=20;" vertex="1" parent="1">
          <mxGeometry x="1070" y="1425" width="140" height="55" as="geometry" />
        </mxCell>
        <mxCell id="UqmcxjYlmGOQxnhvRvWn-61" value="&lt;u&gt;Course_id&lt;/u&gt;" style="ellipse;whiteSpace=wrap;html=1;fontSize=20;" vertex="1" parent="1">
          <mxGeometry x="1070" y="1210" width="140" height="55" as="geometry" />
        </mxCell>
        <mxCell id="UqmcxjYlmGOQxnhvRvWn-63" value="" style="endArrow=none;html=1;rounded=0;fontSize=20;" edge="1" parent="1">
          <mxGeometry width="50" height="50" relative="1" as="geometry">
            <mxPoint x="950" y="1420" as="sourcePoint" />
            <mxPoint x="987" y="1370" as="targetPoint" />
          </mxGeometry>
        </mxCell>
        <mxCell id="UqmcxjYlmGOQxnhvRvWn-64" value="" style="endArrow=none;html=1;rounded=0;fontSize=20;" edge="1" parent="1">
          <mxGeometry width="50" height="50" relative="1" as="geometry">
            <mxPoint x="1060" y="1310" as="sourcePoint" />
            <mxPoint x="1097" y="1260" as="targetPoint" />
          </mxGeometry>
        </mxCell>
        <mxCell id="UqmcxjYlmGOQxnhvRvWn-65" value="" style="endArrow=none;html=1;rounded=0;exitX=0.5;exitY=0;exitDx=0;exitDy=0;fontSize=20;" edge="1" parent="1" source="UqmcxjYlmGOQxnhvRvWn-60">
          <mxGeometry width="50" height="50" relative="1" as="geometry">
            <mxPoint x="1073" y="1425" as="sourcePoint" />
            <mxPoint x="1110" y="1375" as="targetPoint" />
          </mxGeometry>
        </mxCell>
        <mxCell id="UqmcxjYlmGOQxnhvRvWn-67" value="Term_Start" style="ellipse;whiteSpace=wrap;html=1;fontSize=20;" vertex="1" parent="1">
          <mxGeometry x="1530" y="1090" width="140" height="55" as="geometry" />
        </mxCell>
        <mxCell id="UqmcxjYlmGOQxnhvRvWn-68" value="Term_End" style="ellipse;whiteSpace=wrap;html=1;fontSize=20;" vertex="1" parent="1">
          <mxGeometry x="1580" y="980" width="140" height="55" as="geometry" />
        </mxCell>
        <mxCell id="UqmcxjYlmGOQxnhvRvWn-70" value="" style="endArrow=none;html=1;rounded=0;entryX=0.25;entryY=1;entryDx=0;entryDy=0;fontSize=20;" edge="1" parent="1" source="UqmcxjYlmGOQxnhvRvWn-67">
          <mxGeometry width="50" height="50" relative="1" as="geometry">
            <mxPoint x="1480" y="1130" as="sourcePoint" />
            <mxPoint x="1480" y="1050" as="targetPoint" />
          </mxGeometry>
        </mxCell>
        <mxCell id="UqmcxjYlmGOQxnhvRvWn-72" value="" style="endArrow=none;html=1;rounded=0;entryX=0.25;entryY=1;entryDx=0;entryDy=0;exitX=0;exitY=0.5;exitDx=0;exitDy=0;fontSize=20;" edge="1" parent="1" source="UqmcxjYlmGOQxnhvRvWn-68">
          <mxGeometry width="50" height="50" relative="1" as="geometry">
            <mxPoint x="1489.17" y="1080" as="sourcePoint" />
            <mxPoint x="1489.17" y="1000" as="targetPoint" />
          </mxGeometry>
        </mxCell>
        <mxCell id="UqmcxjYlmGOQxnhvRvWn-73" value="Specilization" style="ellipse;whiteSpace=wrap;html=1;fontSize=20;" vertex="1" parent="1">
          <mxGeometry x="1470" y="610" width="140" height="55" as="geometry" />
        </mxCell>
        <mxCell id="UqmcxjYlmGOQxnhvRvWn-77" value="" style="endArrow=none;html=1;rounded=0;entryX=0.25;entryY=1;entryDx=0;entryDy=0;exitX=0.226;exitY=0.861;exitDx=0;exitDy=0;exitPerimeter=0;fontSize=20;" edge="1" parent="1" source="UqmcxjYlmGOQxnhvRvWn-73">
          <mxGeometry width="50" height="50" relative="1" as="geometry">
            <mxPoint x="1550.83" y="718" as="sourcePoint" />
            <mxPoint x="1460" y="710" as="targetPoint" />
          </mxGeometry>
        </mxCell>
        <mxCell id="UqmcxjYlmGOQxnhvRvWn-78" value="Reg_No" style="ellipse;whiteSpace=wrap;html=1;fontSize=20;" vertex="1" parent="1">
          <mxGeometry x="800" y="635" width="140" height="55" as="geometry" />
        </mxCell>
        <mxCell id="UqmcxjYlmGOQxnhvRvWn-79" value="" style="endArrow=none;html=1;rounded=0;exitX=0;exitY=0.25;exitDx=0;exitDy=0;entryX=0.698;entryY=0.943;entryDx=0;entryDy=0;entryPerimeter=0;fontSize=20;" edge="1" parent="1" source="bX-nkgjppk_giDj6LDvc-31" target="UqmcxjYlmGOQxnhvRvWn-78">
          <mxGeometry width="50" height="50" relative="1" as="geometry">
            <mxPoint x="898" y="750" as="sourcePoint" />
            <mxPoint x="910" y="700" as="targetPoint" />
          </mxGeometry>
        </mxCell>
        <mxCell id="UqmcxjYlmGOQxnhvRvWn-80" value="Final_Marks" style="ellipse;whiteSpace=wrap;html=1;fontSize=20;" vertex="1" parent="1">
          <mxGeometry x="100" y="1130" width="140" height="55" as="geometry" />
        </mxCell>
        <mxCell id="UqmcxjYlmGOQxnhvRvWn-81" value="" style="endArrow=none;html=1;rounded=0;fontSize=20;" edge="1" parent="1" source="UqmcxjYlmGOQxnhvRvWn-27">
          <mxGeometry width="50" height="50" relative="1" as="geometry">
            <mxPoint x="210" y="1300" as="sourcePoint" />
            <mxPoint x="210" y="1190" as="targetPoint" />
          </mxGeometry>
        </mxCell>
        <mxCell id="UqmcxjYlmGOQxnhvRvWn-82" value="&lt;span&gt;ATTENDANCE&lt;/span&gt;" style="rounded=0;whiteSpace=wrap;html=1;fontSize=20;" vertex="1" parent="1">
          <mxGeometry x="1690" y="1334" width="160" height="60" as="geometry" />
        </mxCell>
        <mxCell id="UqmcxjYlmGOQxnhvRvWn-83" value="&lt;u&gt;Atendance_Id&lt;/u&gt;" style="ellipse;whiteSpace=wrap;html=1;fontSize=20;" vertex="1" parent="1">
          <mxGeometry x="1600" y="1449" width="140" height="55" as="geometry" />
        </mxCell>
        <mxCell id="UqmcxjYlmGOQxnhvRvWn-84" value="Medical" style="ellipse;whiteSpace=wrap;html=1;fontSize=20;" vertex="1" parent="1">
          <mxGeometry x="1800" y="1449" width="140" height="55" as="geometry" />
        </mxCell>
        <mxCell id="UqmcxjYlmGOQxnhvRvWn-85" value="Date" style="ellipse;whiteSpace=wrap;html=1;fontSize=20;" vertex="1" parent="1">
          <mxGeometry x="1820" y="1240" width="140" height="55" as="geometry" />
        </mxCell>
        <mxCell id="UqmcxjYlmGOQxnhvRvWn-86" value="" style="endArrow=none;html=1;rounded=0;fontSize=20;" edge="1" parent="1">
          <mxGeometry width="50" height="50" relative="1" as="geometry">
            <mxPoint x="1680" y="1444" as="sourcePoint" />
            <mxPoint x="1717" y="1394" as="targetPoint" />
          </mxGeometry>
        </mxCell>
        <mxCell id="UqmcxjYlmGOQxnhvRvWn-87" value="" style="endArrow=none;html=1;rounded=0;fontSize=20;" edge="1" parent="1">
          <mxGeometry width="50" height="50" relative="1" as="geometry">
            <mxPoint x="1790" y="1334" as="sourcePoint" />
            <mxPoint x="1827" y="1284" as="targetPoint" />
          </mxGeometry>
        </mxCell>
        <mxCell id="UqmcxjYlmGOQxnhvRvWn-88" value="" style="endArrow=none;html=1;rounded=0;exitX=0.5;exitY=0;exitDx=0;exitDy=0;fontSize=20;" edge="1" parent="1" source="UqmcxjYlmGOQxnhvRvWn-84">
          <mxGeometry width="50" height="50" relative="1" as="geometry">
            <mxPoint x="1803" y="1449" as="sourcePoint" />
            <mxPoint x="1840" y="1399" as="targetPoint" />
          </mxGeometry>
        </mxCell>
        <mxCell id="UqmcxjYlmGOQxnhvRvWn-89" value="" style="endArrow=none;html=1;rounded=0;entryX=1;entryY=0.5;entryDx=0;entryDy=0;exitX=0;exitY=0.267;exitDx=0;exitDy=0;exitPerimeter=0;fontSize=20;" edge="1" parent="1" source="UqmcxjYlmGOQxnhvRvWn-82" target="UqmcxjYlmGOQxnhvRvWn-54">
          <mxGeometry width="50" height="50" relative="1" as="geometry">
            <mxPoint x="1410" y="1560" as="sourcePoint" />
            <mxPoint x="1447" y="1510" as="targetPoint" />
          </mxGeometry>
        </mxCell>
        <mxCell id="UqmcxjYlmGOQxnhvRvWn-92" value="Status" style="ellipse;whiteSpace=wrap;html=1;fontSize=20;" vertex="1" parent="1">
          <mxGeometry x="1920" y="1339" width="140" height="55" as="geometry" />
        </mxCell>
        <mxCell id="UqmcxjYlmGOQxnhvRvWn-93" value="" style="endArrow=none;html=1;rounded=0;exitX=0;exitY=0.5;exitDx=0;exitDy=0;entryX=1;entryY=0.5;entryDx=0;entryDy=0;fontSize=20;" edge="1" parent="1" source="UqmcxjYlmGOQxnhvRvWn-92" target="UqmcxjYlmGOQxnhvRvWn-82">
          <mxGeometry width="50" height="50" relative="1" as="geometry">
            <mxPoint x="1900" y="1430" as="sourcePoint" />
            <mxPoint x="1860" y="1370" as="targetPoint" />
          </mxGeometry>
        </mxCell>
        <mxCell id="UqmcxjYlmGOQxnhvRvWn-96" value="M" style="text;html=1;whiteSpace=wrap;strokeColor=none;fillColor=none;align=center;verticalAlign=middle;rounded=0;fontSize=20;" vertex="1" parent="1">
          <mxGeometry x="410" y="1252.5" width="60" height="30" as="geometry" />
        </mxCell>
        <mxCell id="UqmcxjYlmGOQxnhvRvWn-98" value="N" style="text;html=1;whiteSpace=wrap;strokeColor=none;fillColor=none;align=center;verticalAlign=middle;rounded=0;fontSize=20;" vertex="1" parent="1">
          <mxGeometry x="910" y="1309" width="60" height="30" as="geometry" />
        </mxCell>
        <mxCell id="UqmcxjYlmGOQxnhvRvWn-99" value="M" style="text;html=1;whiteSpace=wrap;strokeColor=none;fillColor=none;align=center;verticalAlign=middle;rounded=0;fontSize=20;" vertex="1" parent="1">
          <mxGeometry x="390" y="1210" width="60" height="30" as="geometry" />
        </mxCell>
        <mxCell id="UqmcxjYlmGOQxnhvRvWn-100" value="N" style="text;html=1;whiteSpace=wrap;strokeColor=none;fillColor=none;align=center;verticalAlign=middle;rounded=0;fontSize=20;" vertex="1" parent="1">
          <mxGeometry x="900" y="752.5" width="60" height="30" as="geometry" />
        </mxCell>
        <mxCell id="UqmcxjYlmGOQxnhvRvWn-101" value="1" style="text;html=1;whiteSpace=wrap;strokeColor=none;fillColor=none;align=center;verticalAlign=middle;rounded=0;fontSize=20;" vertex="1" parent="1">
          <mxGeometry x="910" y="720" width="60" height="30" as="geometry" />
        </mxCell>
        <mxCell id="UqmcxjYlmGOQxnhvRvWn-102" value="M" style="text;html=1;whiteSpace=wrap;strokeColor=none;fillColor=none;align=center;verticalAlign=middle;rounded=0;fontSize=20;" vertex="1" parent="1">
          <mxGeometry x="370" y="722.5" width="60" height="30" as="geometry" />
        </mxCell>
        <mxCell id="UqmcxjYlmGOQxnhvRvWn-103" value="1" style="text;html=1;whiteSpace=wrap;strokeColor=none;fillColor=none;align=center;verticalAlign=middle;rounded=0;fontSize=20;" vertex="1" parent="1">
          <mxGeometry x="1110" y="1305" width="60" height="30" as="geometry" />
        </mxCell>
        <mxCell id="UqmcxjYlmGOQxnhvRvWn-104" value="M" style="text;html=1;whiteSpace=wrap;strokeColor=none;fillColor=none;align=center;verticalAlign=middle;rounded=0;fontSize=20;" vertex="1" parent="1">
          <mxGeometry x="1640" y="1320" width="60" height="30" as="geometry" />
        </mxCell>
        <mxCell id="UqmcxjYlmGOQxnhvRvWn-105" value="1" style="text;html=1;whiteSpace=wrap;strokeColor=none;fillColor=none;align=center;verticalAlign=middle;rounded=0;fontSize=20;" vertex="1" parent="1">
          <mxGeometry x="1040" y="770" width="60" height="30" as="geometry" />
        </mxCell>
        <mxCell id="UqmcxjYlmGOQxnhvRvWn-106" value="M" style="text;html=1;whiteSpace=wrap;strokeColor=none;fillColor=none;align=center;verticalAlign=middle;rounded=0;fontSize=20;" vertex="1" parent="1">
          <mxGeometry x="990" y="770" width="60" height="30" as="geometry" />
        </mxCell>
        <mxCell id="UqmcxjYlmGOQxnhvRvWn-110" value="N" style="text;html=1;whiteSpace=wrap;strokeColor=none;fillColor=none;align=center;verticalAlign=middle;rounded=0;fontSize=20;" vertex="1" parent="1">
          <mxGeometry x="990" y="1279" width="60" height="30" as="geometry" />
        </mxCell>
        <mxCell id="UqmcxjYlmGOQxnhvRvWn-111" value="1" style="text;html=1;whiteSpace=wrap;strokeColor=none;fillColor=none;align=center;verticalAlign=middle;rounded=0;fontSize=20;" vertex="1" parent="1">
          <mxGeometry x="1110" y="1340" width="60" height="30" as="geometry" />
        </mxCell>
        <mxCell id="UqmcxjYlmGOQxnhvRvWn-112" value="M" style="text;html=1;whiteSpace=wrap;strokeColor=none;fillColor=none;align=center;verticalAlign=middle;rounded=0;fontSize=20;" vertex="1" parent="1">
          <mxGeometry x="1640" y="1347.5" width="60" height="30" as="geometry" />
        </mxCell>
        <mxCell id="UqmcxjYlmGOQxnhvRvWn-115" value="" style="endArrow=none;html=1;rounded=0;exitX=1;exitY=0.5;exitDx=0;exitDy=0;fontSize=20;" edge="1" parent="1" target="bX-nkgjppk_giDj6LDvc-14">
          <mxGeometry width="50" height="50" relative="1" as="geometry">
            <mxPoint x="940" y="430" as="sourcePoint" />
            <mxPoint x="1000" y="472" as="targetPoint" />
          </mxGeometry>
        </mxCell>
      </root>
    </mxGraphModel>
  </diagram>
</mxfile>
